<svg xmlns="http://www.w3.org/2000/svg" xmlns:xlink="http://www.w3.org/1999/xlink" width="512" zoomAndPan="magnify" viewBox="0 0 384 383.999986" height="512" preserveAspectRatio="xMidYMid meet" version="1.0"><path fill="#004aad" d="M 57 191.625 L 57 369 L 117.75 369 C 181.5 369 186.148438 368.773438 202.425781 365.550781 C 245.476562 356.925781 282 331.425781 303.449219 295.050781 C 315 275.476562 322.425781 253.351562 325.949219 228 C 327.523438 216.824219 328.199219 182.25 327.074219 168.375 C 324.824219 141 318.898438 119.175781 307.800781 97.425781 C 285.75 54.226562 246.074219 25.574219 197.023438 17.25 C 182.476562 14.851562 167.773438 14.324219 110.101562 14.25 L 57 14.25 Z M 187.351562 75.601562 C 204.226562 79.351562 216 85.425781 226.5 95.925781 C 242.25 111.675781 251.023438 135.148438 253.574219 168.148438 C 254.699219 182.773438 254.023438 217.050781 252.449219 227.925781 C 245.324219 275.625 221.925781 303 182.773438 309.375 C 177.75 310.199219 169.648438 310.5 152.851562 310.5 L 129.75 310.5 L 129.75 73.351562 L 155.101562 73.726562 C 176.773438 74.023438 181.351562 74.324219 187.351562 75.601562 Z M 187.351562 75.601562 " fill-opacity="1" fill-rule="nonzero"/></svg>